<svg width="48" height="48" viewBox="0 0 48 48" fill="none" xmlns="http://www.w3.org/2000/svg">
<rect x="1" y="1" width="46" height="46" fill="white"/>
<rect x="1" y="1" width="46" height="46" stroke="#242424" stroke-width="2"/>
<path fill-rule="evenodd" clip-rule="evenodd" d="M16.1757 12.6465C14.2266 12.6465 12.6465 14.2266 12.6465 16.1757V39.4682H23.9398C29.3973 39.4682 33.8215 35.0441 33.8215 29.5866V24.6457H24.9986V25.3516C24.9986 27.1057 26.4204 28.5277 28.1745 28.5278C28.1745 28.5278 28.1747 28.5278 28.1748 28.5278H29.5866V30.6453H28.1748C28.1747 30.6453 28.1745 30.6453 28.1745 30.6453C26.4203 30.6453 24.9983 32.0674 24.9983 33.8216H22.8808C22.8808 32.0897 23.7123 30.5523 24.9979 29.5864C23.7125 28.6206 22.8811 27.0831 22.8811 25.3516V23.587V22.5282H17.5873V12.6466L16.1757 12.6465ZM29.5865 9.82324V22.5282H24.6457V13.3524C24.6457 11.4033 26.2257 9.82324 28.1748 9.82324H29.5865Z" fill="black"/>
</svg>
