<svg width="48" height="48" viewBox="0 0 48 48" fill="none" xmlns="http://www.w3.org/2000/svg">
<rect x="1" y="1" width="46" height="46" fill="white"/>
<rect x="1" y="1" width="46" height="46" stroke="#242424" stroke-width="2"/>
<path fill-rule="evenodd" clip-rule="evenodd" d="M18.9991 11.235C18.2195 11.235 17.5875 11.867 17.5875 12.6466C17.5875 13.4263 18.2195 14.0583 18.9991 14.0583V16.8816C16.6602 16.8816 14.7641 14.9855 14.7641 12.6466C14.7641 10.3077 16.6602 8.41162 18.9991 8.41162V11.235ZM11.235 18.2933H30.9983H32.41H33.8216C36.9401 18.2933 39.4683 20.8214 39.4683 23.94C39.4683 27.0585 36.9401 29.5866 33.8216 29.5866H32.41V33.8216H11.235V18.2933ZM32.41 26.7633V21.1166H33.8216C35.3809 21.1166 36.645 22.3806 36.645 23.94C36.645 25.4993 35.3809 26.7633 33.8216 26.7633H32.41ZM8.41162 36.645V39.4683H38.0566V36.645H8.41162ZM26.0575 12.6466C26.0575 11.867 26.6895 11.235 27.4691 11.235V8.41162C25.1301 8.41162 23.2341 10.3077 23.2341 12.6466C23.2341 14.9855 25.1301 16.8816 27.4691 16.8816V14.0583C26.6895 14.0583 26.0575 13.4263 26.0575 12.6466Z" fill="black"/>
</svg>
