<svg width="48" height="48" viewBox="0 0 48 48" fill="none" xmlns="http://www.w3.org/2000/svg">
<rect x="1" y="1" width="46" height="46" fill="white"/>
<rect x="1" y="1" width="46" height="46" stroke="#242424" stroke-width="2"/>
<path fill-rule="evenodd" clip-rule="evenodd" d="M19.7049 11.941C18.1456 11.941 16.8816 13.2051 16.8816 14.7643H14.0582C14.0582 11.6458 16.5863 9.11768 19.7049 9.11768C21.3914 9.11768 22.9053 9.85705 23.9399 11.0293C24.9745 9.85705 26.4884 9.11768 28.1749 9.11768C31.2934 9.11768 33.8216 11.6458 33.8216 14.7643H30.9982C30.9982 13.2051 29.7342 11.941 28.1749 11.941C26.6156 11.941 25.3516 13.2051 25.3516 14.7643H22.5282C22.5282 13.2051 21.2642 11.941 19.7049 11.941ZM38.0566 16.8818H9.82324V25.3518H38.0566V16.8818ZM11.2349 27.4693V39.4685H22.8812V27.4693H11.2349ZM24.9987 27.4693V39.4685H36.6449V27.4693H24.9987Z" fill="black"/>
</svg>
