<svg width="48" height="48" viewBox="0 0 48 48" fill="none" xmlns="http://www.w3.org/2000/svg">
<rect x="1" y="1" width="46" height="46" fill="white"/>
<rect x="1" y="1" width="46" height="46" stroke="#242424" stroke-width="2"/>
<path fill-rule="evenodd" clip-rule="evenodd" d="M12.6466 23.94C12.6466 18.4266 16.5975 13.836 21.8225 12.8448V20.2395L13.5919 28.47C12.984 27.0833 12.6466 25.5511 12.6466 23.94ZM16.0405 32.0107C17.5976 33.5351 19.5942 34.6124 21.8225 35.0351V26.2287L16.0405 32.0107ZM26.0575 26.2287V35.0351C28.2858 34.6124 30.2823 33.5351 31.8395 32.0107L26.0575 26.2287ZM34.288 28.47C34.8959 27.0833 35.2333 25.5511 35.2333 23.94C35.2333 18.4266 31.2825 13.836 26.0575 12.8448V20.2395L34.288 28.47ZM8.41162 23.94C8.41162 15.3639 15.3639 8.41162 23.94 8.41162C32.516 8.41162 39.4683 15.3639 39.4683 23.94C39.4683 32.516 32.516 39.4683 23.94 39.4683C15.3639 39.4683 8.41162 32.516 8.41162 23.94Z" fill="black"/>
</svg>
