<svg width="48" height="48" viewBox="0 0 48 48" fill="none" xmlns="http://www.w3.org/2000/svg">
<rect x="1" y="1" width="46" height="46" fill="white"/>
<rect x="1" y="1" width="46" height="46" stroke="#242424" stroke-width="2"/>
<path fill-rule="evenodd" clip-rule="evenodd" d="M25.3516 8.41162V15.47H39.4683V29.5866H33.1158H32.5311L32.1176 30.0001L29.7077 32.41H18.1722L15.7623 30.0001L15.3488 29.5866H14.7641H8.41162V15.47H22.5283V8.41162H25.3516ZM8.41162 32.41V39.4683H39.4683V32.41H33.7005L31.2906 34.8198L30.8772 35.2333H30.2925H17.5875H17.0027L16.5893 34.8198L14.1794 32.41H8.41162ZM16.1758 25.3516V21.1166H18.9991V25.3516H16.1758ZM28.8808 21.1166V25.3516H31.7041V21.1166H28.8808Z" fill="black"/>
</svg>
