<svg width="34" height="34" viewBox="0 0 34 34" fill="none" xmlns="http://www.w3.org/2000/svg">
<path fill-rule="evenodd" clip-rule="evenodd" d="M16.94 32.4683C25.516 32.4683 32.4683 25.516 32.4683 16.94C32.4683 8.3639 25.516 1.41162 16.94 1.41162C8.3639 1.41162 1.41162 8.3639 1.41162 16.94C1.41162 25.516 8.3639 32.4683 16.94 32.4683ZM16.94 23.2925C13.8214 23.2925 11.2933 20.7643 11.2933 17.6458H8.46995C8.46995 22.3236 12.2621 26.1158 16.94 26.1158C21.6178 26.1158 25.41 22.3236 25.41 17.6458H22.5866C22.5866 20.7643 20.0585 23.2925 16.94 23.2925ZM10.5875 14.1166V9.88162H13.4108V14.1166H10.5875ZM20.4691 9.88162V14.1166H23.2925V9.88162H20.4691Z" fill="black"/>
</svg>
