<svg width="48" height="48" viewBox="0 0 48 48" fill="none" xmlns="http://www.w3.org/2000/svg">
<rect x="1" y="1" width="46" height="46" fill="white"/>
<rect x="1" y="1" width="46" height="46" stroke="#242424" stroke-width="2"/>
<path fill-rule="evenodd" clip-rule="evenodd" d="M23.94 39.4683C32.516 39.4683 39.4683 32.516 39.4683 23.94C39.4683 15.3639 32.516 8.41162 23.94 8.41162C15.3639 8.41162 8.41162 15.3639 8.41162 23.94C8.41162 32.516 15.3639 39.4683 23.94 39.4683ZM23.94 30.2925C20.8214 30.2925 18.2933 27.7643 18.2933 24.6458H15.47C15.47 29.3236 19.2621 33.1158 23.94 33.1158C28.6178 33.1158 32.41 29.3236 32.41 24.6458H29.5866C29.5866 27.7643 27.0585 30.2925 23.94 30.2925ZM17.5875 21.1166V16.8816H20.4108V21.1166H17.5875ZM27.4691 16.8816V21.1166H30.2925V16.8816H27.4691Z" fill="black"/>
</svg>
