<svg width="34" height="34" viewBox="0 0 34 34" fill="none" xmlns="http://www.w3.org/2000/svg">
<path fill-rule="evenodd" clip-rule="evenodd" d="M9.17572 5.64655C7.22659 5.6465 5.64648 7.22658 5.64648 9.17571V32.4682H16.9398C22.3973 32.4682 26.8215 28.0441 26.8215 22.5866V17.6457H17.9986V18.3516C17.9986 20.1057 19.4204 21.5277 21.1745 21.5278C21.1745 21.5278 21.1747 21.5278 21.1748 21.5278H22.5866V23.6453H21.1748C21.1747 23.6453 21.1745 23.6453 21.1745 23.6453C19.4203 23.6453 17.9983 25.0674 17.9983 26.8216H15.8808C15.8808 25.0897 16.7123 23.5523 17.9979 22.5864C16.7125 21.6206 15.8811 20.0831 15.8811 18.3516V16.587V15.5282H10.5873V5.64658L9.17572 5.64655ZM22.5865 2.82324V15.5282H17.6457V6.35241C17.6457 4.40331 19.2257 2.82324 21.1748 2.82324H22.5865Z" fill="black"/>
</svg>
