<svg width="48" height="48" viewBox="0 0 48 48" fill="none" xmlns="http://www.w3.org/2000/svg">
<rect x="1" y="1" width="46" height="46" fill="white"/>
<rect x="1" y="1" width="46" height="46" stroke="#242424" stroke-width="2"/>
<path fill-rule="evenodd" clip-rule="evenodd" d="M35.9392 19.705L28.175 11.9408L31.7042 8.41162L39.4684 16.1758L35.9392 19.705ZM22.5284 9.23856L23.5266 10.2368L26.7028 13.413L26.7634 13.3525L34.5275 21.1166L21.1167 34.5275L13.3526 26.7633L24.7064 15.4094L22.5284 13.2313L15.0566 20.7032L13.0602 18.7068L21.5302 10.2368L22.5284 9.23856ZM11.2351 34.6486V28.8808L11.9409 28.175L19.7051 35.9391L18.9992 36.645H13.2315L10.8216 39.0548L8.8252 37.0584L11.2351 34.6486Z" fill="black"/>
</svg>
