<svg width="40" height="40" viewBox="0 0 40 40" fill="none" xmlns="http://www.w3.org/2000/svg">
<rect x="1" y="1" width="38" height="38" fill="white"/>
<rect x="1" y="1" width="38" height="38" stroke="#242424" stroke-width="2"/>
<path d="M29.4182 19.6696L17.0662 32.904C16.9353 33.0437 16.7625 33.137 16.5739 33.1699C16.3853 33.2027 16.1911 33.1734 16.0207 33.0862C15.8502 32.9991 15.7127 32.8589 15.629 32.6867C15.5452 32.5146 15.5197 32.3199 15.5563 32.132L17.1731 24.0447L10.8173 21.6581C10.6808 21.607 10.5591 21.5229 10.463 21.4133C10.3669 21.3038 10.2995 21.1721 10.2667 21.0301C10.234 20.8881 10.2369 20.7402 10.2752 20.5996C10.3136 20.459 10.3861 20.33 10.4865 20.2243L22.8385 6.98995C22.9694 6.85026 23.1422 6.75693 23.3308 6.72405C23.5194 6.69117 23.7136 6.72052 23.884 6.80767C24.0545 6.89483 24.192 7.03506 24.2757 7.2072C24.3595 7.37934 24.385 7.57405 24.3484 7.76196L22.7272 15.8581L29.083 18.2414C29.2185 18.2928 29.3392 18.3768 29.4345 18.4859C29.5299 18.5951 29.5968 18.726 29.6295 18.8672C29.6623 19.0084 29.6597 19.1554 29.6221 19.2954C29.5844 19.4353 29.5129 19.5638 29.4138 19.6696H29.4182Z" fill="#8675F2"/>
</svg>
