<svg width="50" height="50" viewBox="0 0 50 50" fill="none" xmlns="http://www.w3.org/2000/svg">
<rect x="1.04167" y="1.04167" width="47.9167" height="47.9167" fill="white"/>
<rect x="1.04167" y="1.04167" width="47.9167" height="47.9167" stroke="#242424" stroke-width="2.08333"/>
<path d="M36.7726 24.587L21.3324 41.13C21.1688 41.3046 20.9528 41.4212 20.7171 41.4623C20.4814 41.5034 20.2386 41.4668 20.0256 41.3578C19.8125 41.2489 19.6407 41.0736 19.536 40.8584C19.4313 40.6432 19.3994 40.3998 19.4452 40.165L21.4662 30.0558L13.5214 27.0726C13.3508 27.0087 13.1986 26.9037 13.0785 26.7667C12.9584 26.6297 12.8741 26.4651 12.8332 26.2876C12.7922 26.1101 12.7959 25.9252 12.8438 25.7494C12.8917 25.5737 12.9824 25.4126 13.1078 25.2804L28.5479 8.73744C28.7116 8.56283 28.9275 8.44616 29.1633 8.40506C29.399 8.36396 29.6417 8.40065 29.8548 8.50959C30.0679 8.61854 30.2397 8.79382 30.3444 9.009C30.4491 9.22417 30.481 9.46757 30.4352 9.70245L28.4087 19.8226L36.3535 22.8017C36.5228 22.866 36.6738 22.971 36.7929 23.1074C36.9121 23.2438 36.9958 23.4075 37.0367 23.584C37.0776 23.7605 37.0744 23.9443 37.0273 24.1192C36.9803 24.2941 36.8909 24.4548 36.767 24.587H36.7726Z" fill="#8675F2"/>
</svg>
