<svg width="48" height="48" viewBox="0 0 48 48" fill="none" xmlns="http://www.w3.org/2000/svg">
<path d="M1 47V1H47V47H1Z" fill="white" stroke="#242424" stroke-width="2"/>
<path d="M24.45 14.25C27.75 14.25 28.2 14.25 29.55 14.25C30.75 14.25 31.35 14.55 31.8 14.7C32.4 15 32.85 15.15 33.3 15.6C33.75 16.05 34.05 16.5 34.2 17.1C34.35 17.55 34.5 18.15 34.65 19.35C34.65 20.7 34.65 21 34.65 24.45C34.65 27.9 34.65 28.2 34.65 29.55C34.65 30.75 34.35 31.35 34.2 31.8C33.9 32.4 33.75 32.85 33.3 33.3C32.85 33.75 32.4 34.05 31.8 34.2C31.35 34.35 30.75 34.5 29.55 34.65C28.2 34.65 27.9 34.65 24.45 34.65C21 34.65 20.7 34.65 19.35 34.65C18.15 34.65 17.55 34.35 17.1 34.2C16.5 33.9 16.05 33.75 15.6 33.3C15.15 32.85 14.85 32.4 14.7 31.8C14.55 31.35 14.4 30.75 14.25 29.55C14.25 28.2 14.25 27.9 14.25 24.45C14.25 21 14.25 20.7 14.25 19.35C14.25 18.15 14.55 17.55 14.7 17.1C15 16.5 15.15 16.05 15.6 15.6C16.05 15.15 16.5 14.85 17.1 14.7C17.55 14.55 18.15 14.4 19.35 14.25C20.7 14.25 21.15 14.25 24.45 14.25ZM24.45 12C21 12 20.7 12 19.35 12C18 12 17.1 12.3 16.35 12.6C15.6 12.9 14.85 13.35 14.1 14.1C13.35 14.85 13.05 15.45 12.6 16.35C12.3 17.1 12.15 18 12 19.35C12 20.7 12 21.15 12 24.45C12 27.9 12 28.2 12 29.55C12 30.9 12.3 31.8 12.6 32.55C12.9 33.3 13.35 34.05 14.1 34.8C14.85 35.55 15.45 35.85 16.35 36.3C17.1 36.6 18 36.75 19.35 36.9C20.7 36.9 21.15 36.9 24.45 36.9C27.75 36.9 28.2 36.9 29.55 36.9C30.9 36.9 31.8 36.6 32.55 36.3C33.3 36 34.05 35.55 34.8 34.8C35.55 34.05 35.85 33.45 36.3 32.55C36.6 31.8 36.75 30.9 36.9 29.55C36.9 28.2 36.9 27.75 36.9 24.45C36.9 21.15 36.9 20.7 36.9 19.35C36.9 18 36.6 17.1 36.3 16.35C36 15.6 35.55 14.85 34.8 14.1C34.05 13.35 33.45 13.05 32.55 12.6C31.8 12.3 30.9 12.15 29.55 12C28.2 12 27.9 12 24.45 12Z" fill="#242424"/>
<path d="M24.45 18C20.85 18 18 20.85 18 24.45C18 28.05 20.85 30.9 24.45 30.9C28.05 30.9 30.9 28.05 30.9 24.45C30.9 20.85 28.05 18 24.45 18ZM24.45 28.65C22.2 28.65 20.25 26.85 20.25 24.45C20.25 22.2 22.05 20.25 24.45 20.25C26.7 20.25 28.65 22.05 28.65 24.45C28.65 26.7 26.7 28.65 24.45 28.65Z" fill="#242424"/>
<path d="M31.05 19.35C31.8784 19.35 32.55 18.6784 32.55 17.85C32.55 17.0216 31.8784 16.35 31.05 16.35C30.2216 16.35 29.55 17.0216 29.55 17.85C29.55 18.6784 30.2216 19.35 31.05 19.35Z" fill="#242424"/>
</svg>
