<svg width="62" height="62" viewBox="0 0 62 62" fill="none" xmlns="http://www.w3.org/2000/svg">
<g clip-path="url(#clip0_532_43)">
<path d="M58.6161 54.5457C56.3303 56.5236 53.1587 57.5135 49.0993 57.5135C47.7007 57.5135 46.2852 57.3342 44.8526 56.9767C43.42 56.6177 42.0891 55.9953 40.8613 55.109C39.633 54.2207 38.6271 53.01 37.8429 51.4757L44.1871 49.1729C44.6648 50.0942 45.3463 50.7246 46.2336 51.0666C47.1209 51.4071 48.0072 51.5779 48.8945 51.5779C50.5319 51.5779 51.8453 51.1933 52.8342 50.4262C53.8231 49.6581 54.3184 48.4393 54.3184 46.7679V42.2143C53.2263 43.5793 51.973 44.5847 50.5574 45.2327C49.1418 45.8811 47.7178 46.2046 46.2852 46.2046C44.443 46.2046 42.686 45.7099 41.0145 44.7209C39.3431 43.732 37.9786 42.3164 36.9211 40.4743C35.8636 38.6326 35.3353 36.4324 35.3353 33.8737C35.3353 30.9069 35.8636 28.4758 36.9211 26.5831C37.9786 24.6898 39.3266 23.2828 40.964 22.3615C42.6013 21.4401 44.2898 20.98 46.0298 20.98C47.6327 20.98 49.1759 21.338 50.6605 22.0545C52.1442 22.7711 53.364 23.8281 54.3189 25.2271L55.3418 21.7481H62V0H0V23.6283C0.338992 22.5442 0.774625 21.5247 1.3069 20.5714C2.77353 17.9451 4.81199 15.9156 7.42177 14.483C10.0311 13.0504 13.058 12.3334 16.504 12.3334C19.5053 12.3334 22.2087 12.9303 24.6132 14.124C27.0177 15.3177 28.9025 17.0748 30.2674 19.3947L23.3088 22.2598C22.7635 21.3735 21.9193 20.6064 20.7762 19.9575C19.633 19.309 18.1754 18.9846 16.4013 18.9846C14.798 18.9846 13.3314 19.3942 12.0009 20.2128C10.67 21.0315 9.61245 22.2508 8.82832 23.8712C8.04368 25.4915 7.65161 27.5124 7.65161 29.934C7.65161 33.5157 8.4703 36.2707 10.1077 38.1975C11.7451 40.1248 13.8942 41.0882 16.554 41.0882C17.8159 41.0882 19.0271 40.9094 20.1873 40.5514C21.3475 40.1934 22.3024 39.588 23.0525 38.7342C23.8026 37.8815 24.1786 36.7388 24.1786 35.3063V34.3343H16.5035V27.7853H32.2628V47.1259H26.9416L25.8165 43.3394C23.6328 46.2732 20.1362 47.7398 15.3273 47.7398C11.9844 47.7398 9.10171 47.0153 6.6802 45.5657C4.25768 44.116 2.38997 42.0521 1.07706 39.3747C0.647941 38.4999 0.28942 37.574 0.000500727 36.5986V61.999H62.0005V46.6242C61.7712 50.1493 60.6435 52.7901 58.6171 54.5447L58.6161 54.5457Z" fill="#242424"/>
<path d="M52.9618 28.5023C51.8527 27.5475 50.5478 27.0698 49.0476 27.0698C47.5474 27.0698 46.191 27.582 45.0823 28.605C43.9732 29.6285 43.4194 31.2493 43.4194 33.4655C43.4194 35.6818 43.9732 37.3968 45.0823 38.5049C46.1905 39.614 47.5124 40.1678 49.0476 40.1678C50.0706 40.1678 50.9999 39.972 51.8356 39.5794C52.6714 39.1874 53.3453 38.5134 53.8566 37.5585C54.3678 36.6036 54.6247 35.3072 54.6247 33.6698C54.6247 31.1807 54.0704 29.4577 52.9618 28.5023Z" fill="#242424"/>
</g>
<defs>
<clipPath id="clip0_532_43">
<rect width="62" height="62" fill="white"/>
</clipPath>
</defs>
</svg>
