<svg width="50" height="50" viewBox="0 0 50 50" fill="none" xmlns="http://www.w3.org/2000/svg">
<rect x="1.04167" y="1.04167" width="47.9167" height="47.9167" fill="white"/>
<rect x="1.04167" y="1.04167" width="47.9167" height="47.9167" stroke="#242424" stroke-width="2.08333"/>
<path d="M32.6576 19.6398V18.8719C32.6576 15.4144 27.4424 12.8062 20.526 12.8062C13.6097 12.8062 8.39453 15.4144 8.39453 18.8719V24.3862C8.39453 27.2661 12.0133 29.5545 17.2174 30.2397V31.0034C17.2174 34.4609 22.4326 37.0692 29.349 37.0692C36.2653 37.0692 41.4805 34.4609 41.4805 31.0034V25.4891C41.4805 22.6354 37.9761 20.3442 32.6576 19.6398ZM15.0117 27.539C12.3111 26.785 10.6003 25.5429 10.6003 24.3862V22.4466C11.7252 23.2434 13.232 23.8858 15.0117 24.3173V27.539ZM26.0404 24.3173C27.8201 23.8858 29.3269 23.2434 30.4518 22.4466V24.3862C30.4518 25.5429 28.741 26.785 26.0404 27.539V24.3173ZM23.8346 34.1562C21.134 33.4021 19.4232 32.16 19.4232 31.0034V30.4286C19.7857 30.4423 20.1524 30.452 20.526 30.452C21.0609 30.452 21.5834 30.4341 22.0962 30.4037C22.666 30.6077 23.2463 30.7807 23.8346 30.9221V34.1562ZM23.8346 28.005C22.7392 28.1668 21.6333 28.2475 20.526 28.2463C19.4187 28.2475 18.3129 28.1668 17.2174 28.005V24.7254C18.3145 24.8683 19.4197 24.9392 20.526 24.9377C21.6324 24.9392 22.7376 24.8683 23.8346 24.7254V28.005ZM32.6576 34.6222C30.4636 34.9439 28.2344 34.9439 26.0404 34.6222V31.3343C27.1371 31.4817 28.2424 31.5554 29.349 31.5549C30.4553 31.5564 31.5605 31.4855 32.6576 31.3426V34.6222ZM39.2747 31.0034C39.2747 32.16 37.5639 33.4021 34.8633 34.1562V30.9345C36.643 30.503 38.1498 29.8606 39.2747 29.0638V31.0034Z" fill="#8675F2"/>
</svg>
