<svg width="101" height="64" viewBox="0 0 101 64" fill="none" xmlns="http://www.w3.org/2000/svg">
<path d="M40.8375 39.7603C40.8375 43.2966 43.7042 46.1634 47.2408 46.1634H53.1865C56.9755 46.1634 60.047 43.0917 60.047 39.3029C60.047 35.5138 56.9755 32.4422 53.1865 32.4422H47.6979C43.9091 32.4422 40.8375 29.3708 40.8375 25.5817C40.8375 21.7927 43.9091 18.7211 47.6979 18.7211H53.6439C57.1802 18.7211 60.047 21.5879 60.047 25.1243M50.4423 14.6048V18.7211M50.4423 46.1634V50.2797M77.8845 32.4422C77.8845 47.5983 65.5982 59.8846 50.4423 59.8846C35.2863 59.8846 23 47.5983 23 32.4422C23 17.2863 35.2863 5 50.4423 5C65.5982 5 77.8845 17.2863 77.8845 32.4422Z" stroke="#8675F2" stroke-width="4.54217" stroke-linecap="round" stroke-linejoin="round"/>
</svg>
