<svg width="40" height="40" viewBox="0 0 40 40" fill="none" xmlns="http://www.w3.org/2000/svg">
<rect x="1" y="1" width="38" height="38" fill="white"/>
<rect x="1" y="1" width="38" height="38" stroke="#242424" stroke-width="2"/>
<path d="M26.1257 15.712V15.0977C26.1257 12.3317 21.9536 10.2451 16.4205 10.2451C10.8875 10.2451 6.71533 12.3317 6.71533 15.0977V19.5092C6.71533 21.8131 9.61035 23.6438 13.7737 24.1919V24.8029C13.7737 27.5689 17.9458 29.6555 23.4789 29.6555C29.0119 29.6555 33.1841 27.5689 33.1841 24.8029V20.3915C33.1841 18.1085 30.3806 16.2756 26.1257 15.712ZM12.0091 22.0314C9.84857 21.4282 8.47992 20.4345 8.47992 19.5092V17.9574C9.37985 18.5949 10.5853 19.1088 12.0091 19.454V22.0314ZM20.832 19.454C22.2558 19.1088 23.4612 18.5949 24.3612 17.9574V19.5092C24.3612 20.4345 22.9925 21.4282 20.832 22.0314V19.454ZM19.0674 27.3252C16.9069 26.7219 15.5382 25.7282 15.5382 24.8029V24.343C15.8283 24.3541 16.1217 24.3618 16.4205 24.3618C16.8485 24.3618 17.2664 24.3474 17.6767 24.3232C18.1325 24.4863 18.5967 24.6248 19.0674 24.7379V27.3252ZM19.0674 22.4042C18.1911 22.5337 17.3064 22.5982 16.4205 22.5972C15.5347 22.5982 14.65 22.5337 13.7737 22.4042V19.7805C14.6513 19.8948 15.5355 19.9516 16.4205 19.9503C17.3056 19.9516 18.1898 19.8948 19.0674 19.7805V22.4042ZM26.1257 27.698C24.3705 27.9553 22.5872 27.9553 20.832 27.698V25.0676C21.7094 25.1856 22.5936 25.2445 23.4789 25.2441C24.3639 25.2453 25.2481 25.1886 26.1257 25.0742V27.698ZM31.4195 24.8029C31.4195 25.7282 30.0508 26.7219 27.8903 27.3252V24.7478C29.3141 24.4026 30.5196 23.8887 31.4195 23.2512V24.8029Z" fill="#8675F2"/>
</svg>
