<svg width="50" height="50" viewBox="0 0 50 50" fill="none" xmlns="http://www.w3.org/2000/svg">
<rect x="1.04167" y="1.04167" width="47.9167" height="47.9167" fill="white"/>
<rect x="1.04167" y="1.04167" width="47.9167" height="47.9167" stroke="#242424" stroke-width="2.08333"/>
<path d="M35.9661 12.8062H13.9089C13.3239 12.8062 12.7628 13.0385 12.3492 13.4522C11.9355 13.8658 11.7031 14.4269 11.7031 15.0119V22.7319C11.7031 29.9998 15.2213 34.4044 18.1728 36.8197C21.3518 39.4197 24.5143 40.3033 24.6521 40.3392C24.8417 40.3907 25.0416 40.3907 25.2311 40.3392C25.369 40.3033 28.5273 39.4197 31.7105 36.8197C34.6537 34.4044 38.1719 29.9998 38.1719 22.7319V15.0119C38.1719 14.4269 37.9395 13.8658 37.5258 13.4522C37.1122 13.0385 36.5511 12.8062 35.9661 12.8062ZM30.8654 24.8591L26.6869 26.5299L29.1284 29.7903C29.3039 30.0243 29.3792 30.3184 29.3379 30.608C29.2965 30.8975 29.1418 31.1588 28.9078 31.3343C28.6738 31.5098 28.3797 31.5851 28.0901 31.5438C27.8006 31.5024 27.5393 31.3477 27.3638 31.1137L24.9375 27.8782L22.5112 31.1137C22.4243 31.2296 22.3154 31.3272 22.1908 31.401C22.0662 31.4748 21.9282 31.5233 21.7849 31.5438C21.6415 31.5642 21.4955 31.5563 21.3552 31.5203C21.2149 31.4844 21.0831 31.4212 20.9672 31.3343C20.8513 31.2474 20.7537 31.1385 20.6799 31.0139C20.6061 30.8893 20.5576 30.7513 20.5371 30.608C20.5166 30.4646 20.5246 30.3186 20.5605 30.1783C20.5965 30.038 20.6597 29.9061 20.7466 29.7903L23.1922 26.5299L19.0096 24.8591C18.7379 24.7494 18.521 24.5363 18.4065 24.2666C18.3497 24.1331 18.3199 23.9897 18.3186 23.8447C18.3173 23.6996 18.3446 23.5557 18.3989 23.4212C18.4532 23.2867 18.5335 23.1642 18.6351 23.0607C18.7368 22.9572 18.8578 22.8748 18.9913 22.8181C19.261 22.7035 19.5651 22.7008 19.8368 22.8105L23.8346 24.411V20.5262C23.8346 20.2337 23.9508 19.9532 24.1577 19.7464C24.3645 19.5395 24.645 19.4233 24.9375 19.4233C25.23 19.4233 25.5105 19.5395 25.7173 19.7464C25.9242 19.9532 26.0404 20.2337 26.0404 20.5262V24.411L30.0382 22.8105C30.1728 22.7562 30.3167 22.7289 30.4617 22.7302C30.6068 22.7315 30.7501 22.7614 30.8837 22.8181C31.0172 22.8748 31.1382 22.9572 31.2399 23.0607C31.3415 23.1642 31.4218 23.2867 31.4761 23.4212C31.5304 23.5557 31.5577 23.6996 31.5564 23.8447C31.5551 23.9897 31.5253 24.1331 31.4685 24.2666C31.4118 24.4002 31.3294 24.5212 31.2259 24.6228C31.1224 24.7245 30.9999 24.8048 30.8654 24.8591Z" fill="#8675F2"/>
</svg>
