<svg width="40" height="40" viewBox="0 0 40 40" fill="none" xmlns="http://www.w3.org/2000/svg">
<rect x="1" y="1" width="38" height="38" fill="white"/>
<rect x="1" y="1" width="38" height="38" stroke="#242424" stroke-width="2"/>
<path d="M28.7727 10.2451H11.1269C10.6589 10.2451 10.2101 10.431 9.87914 10.762C9.54822 11.0929 9.3623 11.5417 9.3623 12.0097V18.1857C9.3623 24 12.1768 27.5237 14.538 29.4559C17.0813 31.5359 19.6112 32.2429 19.7215 32.2715C19.8732 32.3128 20.0331 32.3128 20.1847 32.2715C20.295 32.2429 22.8217 31.5359 25.3682 29.4559C27.7228 27.5237 30.5373 24 30.5373 18.1857V12.0097C30.5373 11.5417 30.3514 11.0929 30.0205 10.762C29.6895 10.431 29.2407 10.2451 28.7727 10.2451ZM24.6921 19.8875L21.3493 21.2241L23.3025 23.8324C23.4429 24.0196 23.5032 24.2549 23.4701 24.4866C23.437 24.7182 23.3133 24.9272 23.1261 25.0676C22.9389 25.208 22.7035 25.2683 22.4719 25.2352C22.2403 25.2021 22.0312 25.0784 21.8908 24.8912L19.9498 22.3027L18.0088 24.8912C17.9392 24.9839 17.8521 25.0619 17.7525 25.121C17.6528 25.18 17.5424 25.2188 17.4277 25.2352C17.313 25.2516 17.1962 25.2452 17.084 25.2165C16.9717 25.1877 16.8662 25.1371 16.7736 25.0676C16.6809 24.9981 16.6028 24.911 16.5437 24.8113C16.4847 24.7116 16.4459 24.6013 16.4295 24.4866C16.4131 24.3719 16.4195 24.2551 16.4482 24.1428C16.477 24.0306 16.5276 23.9251 16.5971 23.8324L18.5536 21.2241L15.2075 19.8875C14.9902 19.7997 14.8166 19.6292 14.725 19.4135C14.6796 19.3067 14.6557 19.192 14.6547 19.0759C14.6536 18.9599 14.6755 18.8448 14.7189 18.7372C14.7624 18.6296 14.8266 18.5316 14.9079 18.4488C14.9892 18.366 15.0861 18.3 15.1929 18.2547C15.4086 18.163 15.6519 18.1609 15.8692 18.2486L19.0675 19.529V16.4212C19.0675 16.1872 19.1605 15.9627 19.3259 15.7973C19.4914 15.6318 19.7158 15.5389 19.9498 15.5389C20.1838 15.5389 20.4082 15.6318 20.5737 15.7973C20.7391 15.9627 20.8321 16.1872 20.8321 16.4212V19.529L24.0304 18.2486C24.138 18.2052 24.2531 18.1833 24.3692 18.1844C24.4852 18.1854 24.5999 18.2093 24.7067 18.2547C24.8135 18.3 24.9104 18.366 24.9917 18.4488C25.073 18.5316 25.1372 18.6296 25.1807 18.7372C25.2241 18.8448 25.246 18.9599 25.2449 19.0759C25.2439 19.192 25.22 19.3067 25.1746 19.4135C25.1293 19.5203 25.0633 19.6172 24.9805 19.6985C24.8977 19.7798 24.7997 19.844 24.6921 19.8875Z" fill="#8675F2"/>
</svg>
