<svg width="101" height="68" viewBox="0 0 101 68" fill="none" xmlns="http://www.w3.org/2000/svg">
<path d="M41.1733 32.3011L47.6426 38.5141L62.1987 24.5347M76.7546 33.8543C76.7546 49.1026 59.4362 60.193 53.1351 63.7234C52.4189 64.1247 52.0608 64.3252 51.5555 64.4295C51.1634 64.5101 50.5912 64.5101 50.1991 64.4295C49.6937 64.3252 49.3357 64.1247 48.6194 63.7234C42.3182 60.193 25 49.1026 25 33.8543V18.9975C25 16.5138 25 15.2719 25.423 14.2044C25.7966 13.2614 26.4038 12.4199 27.192 11.7528C28.0842 10.9977 29.295 10.5616 31.7165 9.68951L49.06 3.44323C49.7325 3.20104 50.0688 3.07995 50.4148 3.03194C50.7215 2.98935 51.0331 2.98935 51.3398 3.03194C51.6858 3.07995 52.0221 3.20104 52.6946 3.44323L70.038 9.68951C72.4595 10.5616 73.6703 10.9977 74.5625 11.7528C75.3509 12.4199 75.9579 13.2614 76.3316 14.2044C76.7546 15.2719 76.7546 16.5138 76.7546 18.9975V33.8543Z" stroke="#8675F2" stroke-width="4.99639" stroke-linecap="round" stroke-linejoin="round"/>
</svg>
