<svg width="50" height="50" viewBox="0 0 50 50" fill="none" xmlns="http://www.w3.org/2000/svg">
<rect x="1.04167" y="1.04167" width="47.9167" height="47.9167" fill="white"/>
<rect x="1.04167" y="1.04167" width="47.9167" height="47.9167" stroke="#242424" stroke-width="2.08333"/>
<path d="M39.2748 13.909V19.4233C39.2748 19.7158 39.1586 19.9964 38.9518 20.2032C38.745 20.41 38.4645 20.5262 38.172 20.5262C37.8795 20.5262 37.5989 20.41 37.3921 20.2032C37.1853 19.9964 37.0691 19.7158 37.0691 19.4233V15.0119H32.6576C32.3651 15.0119 32.0846 14.8957 31.8778 14.6889C31.671 14.482 31.5548 14.2015 31.5548 13.909C31.5548 13.6165 31.671 13.336 31.8778 13.1292C32.0846 12.9223 32.3651 12.8062 32.6576 12.8062H38.172C38.4645 12.8062 38.745 12.9223 38.9518 13.1292C39.1586 13.336 39.2748 13.6165 39.2748 13.909ZM17.2175 34.8634H12.8061V30.452C12.8061 30.1595 12.6899 29.879 12.483 29.6721C12.2762 29.4653 11.9957 29.3491 11.7032 29.3491C11.4107 29.3491 11.1302 29.4653 10.9234 29.6721C10.7165 29.879 10.6003 30.1595 10.6003 30.452V35.9663C10.6003 36.2588 10.7165 36.5393 10.9234 36.7462C11.1302 36.953 11.4107 37.0692 11.7032 37.0692H17.2175C17.51 37.0692 17.7905 36.953 17.9974 36.7462C18.2042 36.5393 18.3204 36.2588 18.3204 35.9663C18.3204 35.6738 18.2042 35.3933 17.9974 35.1865C17.7905 34.9796 17.51 34.8634 17.2175 34.8634ZM38.172 29.3491C37.8795 29.3491 37.5989 29.4653 37.3921 29.6721C37.1853 29.879 37.0691 30.1595 37.0691 30.452V34.8634H32.6576C32.3651 34.8634 32.0846 34.9796 31.8778 35.1865C31.671 35.3933 31.5548 35.6738 31.5548 35.9663C31.5548 36.2588 31.671 36.5393 31.8778 36.7462C32.0846 36.953 32.3651 37.0692 32.6576 37.0692H38.172C38.4645 37.0692 38.745 36.953 38.9518 36.7462C39.1586 36.5393 39.2748 36.2588 39.2748 35.9663V30.452C39.2748 30.1595 39.1586 29.879 38.9518 29.6721C38.745 29.4653 38.4645 29.3491 38.172 29.3491ZM11.7032 20.5262C11.9957 20.5262 12.2762 20.41 12.483 20.2032C12.6899 19.9964 12.8061 19.7158 12.8061 19.4233V15.0119H17.2175C17.51 15.0119 17.7905 14.8957 17.9974 14.6889C18.2042 14.482 18.3204 14.2015 18.3204 13.909C18.3204 13.6165 18.2042 13.336 17.9974 13.1292C17.7905 12.9223 17.51 12.8062 17.2175 12.8062H11.7032C11.4107 12.8062 11.1302 12.9223 10.9234 13.1292C10.7165 13.336 10.6003 13.6165 10.6003 13.909V19.4233C10.6003 19.7158 10.7165 19.9964 10.9234 20.2032C11.1302 20.41 11.4107 20.5262 11.7032 20.5262ZM31.8195 18.7768L25.489 15.1566C25.3223 15.0614 25.1337 15.0113 24.9417 15.0113C24.7497 15.0113 24.5611 15.0614 24.3944 15.1566L18.0557 18.7768C17.9695 18.8245 17.8977 18.8944 17.8476 18.9792C17.7976 19.0641 17.7712 19.1608 17.7712 19.2593C17.7712 19.3578 17.7976 19.4545 17.8476 19.5393C17.8977 19.6242 17.9695 19.6941 18.0557 19.7418L24.9376 23.668L31.8195 19.7349C31.904 19.6867 31.9743 19.617 32.0232 19.5329C32.072 19.4487 32.0978 19.3532 32.0978 19.2558C32.0978 19.1585 32.072 19.063 32.0232 18.9788C31.9743 18.8947 31.904 18.825 31.8195 18.7768ZM16.1147 22.1157V29.3491C16.1129 29.5444 16.163 29.7366 16.2599 29.9062C16.3568 30.0757 16.497 30.2165 16.6661 30.3141L23.0076 33.9357C23.0915 33.9841 23.1866 34.0096 23.2835 34.0095C23.3804 34.0095 23.4755 33.984 23.5594 33.9355C23.6432 33.887 23.7128 33.8172 23.7611 33.7333C23.8095 33.6494 23.8349 33.5542 23.8347 33.4573V25.5773L16.9418 21.6373C16.8579 21.5889 16.7628 21.5634 16.6659 21.5635C16.569 21.5635 16.4739 21.589 16.39 21.6375C16.3062 21.686 16.2366 21.7558 16.1882 21.8397C16.1399 21.9236 16.1145 22.0188 16.1147 22.1157ZM33.7605 29.3491V22.1157C33.7606 22.0188 33.7353 21.9236 33.6869 21.8397C33.6386 21.7558 33.569 21.686 33.4851 21.6375C33.4013 21.589 33.3061 21.5635 33.2093 21.5635C33.1124 21.5634 33.0172 21.5889 32.9333 21.6373L26.0404 25.5773V33.4504C26.0403 33.5473 26.0657 33.6425 26.114 33.7264C26.1624 33.8103 26.232 33.8801 26.3158 33.9286C26.3997 33.9771 26.4948 34.0026 26.5917 34.0026C26.6885 34.0027 26.7837 33.9772 26.8676 33.9288L33.2091 30.3141C33.3782 30.2165 33.5183 30.0757 33.6152 29.9062C33.7121 29.7366 33.7622 29.5444 33.7605 29.3491Z" fill="#8675F2"/>
</svg>
