<svg width="100" height="57" viewBox="0 0 100 57" fill="none" xmlns="http://www.w3.org/2000/svg">
<path d="M55.5732 53.9553H37.2292M37.2292 53.9553C32.9486 53.9553 30.8083 53.9553 29.1733 53.1222C27.7351 52.3894 26.5658 51.2202 25.8331 49.7819C25 48.147 25 46.0067 25 41.7259M37.2292 53.9553H38.2483C42.529 53.9553 44.6693 53.9553 46.3044 53.1222C47.7425 52.3894 48.9118 51.2202 49.6445 49.7819C50.4775 48.147 50.4775 46.0067 50.4775 41.7259V40.7069C50.4775 36.4261 50.4775 34.2859 49.6445 32.6509C48.9118 31.2126 47.7425 30.0435 46.3044 29.3106C44.6693 28.4776 42.529 28.4776 38.2483 28.4776H37.2292C32.9486 28.4776 30.8083 28.4776 29.1733 29.3106C27.7351 30.0435 26.5658 31.2126 25.8331 32.6509C25 34.2859 25 36.4261 25 40.7069V41.7259M25 41.7259V23.3822M45.3821 3H55.5732M75.9552 23.3822V33.5732M65.7642 53.9553C68.1336 53.9553 69.3182 53.9553 70.2902 53.6948C72.9279 52.988 74.988 50.9279 75.6947 48.2903C75.9552 47.3183 75.9552 46.1334 75.9552 43.7642M75.9552 13.191C75.9552 10.8217 75.9552 9.63702 75.6947 8.66504C74.988 6.0274 72.9279 3.96719 70.2902 3.26043C69.3182 3 68.1336 3 65.7642 3M35.191 3C32.8217 3 31.637 3 30.665 3.26043C28.0274 3.96719 25.9672 6.0274 25.2604 8.66504C25 9.63702 25 10.8217 25 13.191" stroke="#8675F2" stroke-width="5.22349" stroke-linecap="round" stroke-linejoin="round"/>
</svg>
