<svg width="40" height="40" viewBox="0 0 40 40" fill="none" xmlns="http://www.w3.org/2000/svg">
<rect x="1" y="1" width="38" height="38" fill="white"/>
<rect x="1" y="1" width="38" height="38" stroke="#242424" stroke-width="2"/>
<path d="M23.9721 27.4083C24.0589 27.5414 24.1082 27.6955 24.1146 27.8543C24.1211 28.0131 24.0846 28.1707 24.0089 28.3105C23.9332 28.4502 23.8212 28.5669 23.6846 28.6482C23.5481 28.7296 23.3921 28.7725 23.2332 28.7725H6.96153C6.8026 28.7725 6.64663 28.7296 6.51009 28.6482C6.37356 28.5669 6.26153 28.4502 6.18583 28.3105C6.11014 28.1707 6.0736 28.0131 6.08008 27.8543C6.08655 27.6955 6.1358 27.5414 6.22261 27.4083C7.46455 25.4966 9.29132 24.0378 11.4303 23.2494C10.2478 22.4622 9.35008 21.3153 8.86981 19.9784C8.38954 18.6414 8.35227 17.1854 8.76349 15.8257C9.17471 14.4659 10.0126 13.2746 11.1533 12.4279C12.2939 11.5812 13.6768 11.124 15.0974 11.124C16.5179 11.124 17.9008 11.5812 19.0415 12.4279C20.1821 13.2746 21.02 14.4659 21.4312 15.8257C21.8425 17.1854 21.8052 18.6414 21.3249 19.9784C20.8446 21.3153 19.9469 22.4622 18.7644 23.2494C20.9034 24.0378 22.7302 25.4966 23.9721 27.4083ZM33.6674 27.3918C32.4251 25.4881 30.6024 24.0356 28.4696 23.2494C29.8656 22.309 30.8508 20.8721 31.2246 19.2309C31.5985 17.5898 31.3329 15.8679 30.4819 14.4157C29.6309 12.9635 28.2585 11.8902 26.6441 11.4141C25.0296 10.9381 23.2945 11.0953 21.7917 11.8535C21.7343 11.8832 21.6841 11.9251 21.6446 11.9763C21.6051 12.0276 21.5774 12.0869 21.5634 12.15C21.5495 12.2131 21.5495 12.2786 21.5636 12.3417C21.5777 12.4048 21.6055 12.464 21.6451 12.5152C22.7625 13.909 23.4042 15.624 23.4762 17.409C23.5483 19.1939 23.0468 20.9551 22.0454 22.4344C21.9807 22.5311 21.9568 22.6494 21.9789 22.7636C22.001 22.8778 22.0673 22.9787 22.1634 23.0443C23.4691 23.9555 24.5868 25.11 25.4555 26.4444C25.8058 26.9809 25.9489 27.6265 25.858 28.2608C25.8478 28.3239 25.8514 28.3885 25.8686 28.45C25.8858 28.5116 25.9161 28.5687 25.9576 28.6174C25.999 28.666 26.0505 28.7051 26.1085 28.7319C26.1666 28.7587 26.2297 28.7726 26.2936 28.7725H32.9439C33.1382 28.7726 33.3271 28.7085 33.4812 28.5903C33.6354 28.472 33.7462 28.3062 33.7964 28.1185C33.8271 27.9951 33.8315 27.8666 33.8092 27.7414C33.787 27.6162 33.7387 27.4971 33.6674 27.3918Z" fill="#8675F2"/>
</svg>
