<svg width="40" height="40" viewBox="0 0 40 40" fill="none" xmlns="http://www.w3.org/2000/svg">
<rect x="1" y="1" width="38" height="38" fill="white"/>
<rect x="1" y="1" width="38" height="38" stroke="#242424" stroke-width="2"/>
<path d="M31.4198 16.4206C31.4198 15.9526 31.2339 15.5038 30.903 15.1729C30.572 14.842 30.1232 14.6561 29.6552 14.6561H26.1261V11.1269C26.1261 10.6589 25.9401 10.2101 25.6092 9.87914C25.2783 9.54822 24.8295 9.3623 24.3615 9.3623H10.2448C9.77681 9.3623 9.32798 9.54822 8.99706 9.87914C8.66614 10.2101 8.48022 10.6589 8.48022 11.1269V25.2436C8.48074 25.4095 8.52807 25.572 8.61678 25.7123C8.70549 25.8526 8.83198 25.965 8.98171 26.0367C9.13145 26.1083 9.29835 26.1363 9.46326 26.1173C9.62816 26.0984 9.78437 26.0333 9.91395 25.9295L13.774 22.8173V26.1258C13.774 26.5938 13.9599 27.0427 14.2908 27.3736C14.6217 27.7045 15.0706 27.8904 15.5386 27.8904H25.8603L29.9861 31.2233C30.1422 31.3496 30.3367 31.4188 30.5375 31.4196C30.7715 31.4196 30.9959 31.3266 31.1614 31.1612C31.3269 30.9957 31.4198 30.7713 31.4198 30.5373V16.4206ZM26.7271 26.3222C26.571 26.1959 26.3765 26.1266 26.1757 26.1258H15.5386V22.5967H24.3615C24.8295 22.5967 25.2783 22.4108 25.6092 22.0798C25.9401 21.7489 26.1261 21.3001 26.1261 20.8321V16.4206H29.6552V28.69L26.7271 26.3222Z" fill="#8675F2"/>
</svg>
