<svg width="100" height="61" viewBox="0 0 100 61" fill="none" xmlns="http://www.w3.org/2000/svg">
<g clip-path="url(#clip0_128_328)">
<path d="M47.2981 5.03727H37.5788C32.4758 5.03727 29.9242 5.03727 27.9751 6.03039C26.2606 6.90396 24.8667 8.29789 23.9931 10.0124C23 11.9615 23 14.513 23 19.6161V35.4097C23 38.2343 23 39.6467 23.3105 40.8054C24.153 43.9497 26.6091 46.4059 29.7535 47.2485C30.9122 47.5589 32.3245 47.5589 35.149 47.5589V54.6524C35.149 56.2708 35.149 57.08 35.4808 57.4956C35.7693 57.8571 36.2068 58.0675 36.6693 58.0668C37.2011 58.0663 37.833 57.5608 39.0967 56.5497L46.3419 50.7537C47.822 49.5695 48.5621 48.9774 49.3861 48.5564C50.1172 48.183 50.8955 47.91 51.6996 47.7449C52.6063 47.5589 53.554 47.5589 55.4492 47.5589H60.0545C65.1576 47.5589 67.7092 47.5589 69.6582 46.5658C71.3727 45.6921 72.7667 44.2983 73.6404 42.5837C74.6333 40.6346 74.6333 38.083 74.6333 32.9801V32.3726M75.0019 4.66878C78.5602 8.22714 78.5602 13.9964 75.0019 17.5548C71.4435 21.1131 65.6743 21.1131 62.116 17.5548C58.5574 13.9964 58.5574 8.22714 62.116 4.66878C65.6743 1.11041 71.4435 1.11041 75.0019 4.66878Z" stroke="#8675F2" stroke-width="4.99639" stroke-linecap="round" stroke-linejoin="round"/>
</g>
<defs>
<clipPath id="clip0_128_328">
<rect width="100" height="61" fill="white"/>
</clipPath>
</defs>
</svg>
