<svg width="50" height="50" viewBox="0 0 50 50" fill="none" xmlns="http://www.w3.org/2000/svg">
<rect x="1.04167" y="1.04167" width="47.9167" height="47.9167" fill="white"/>
<rect x="1.04167" y="1.04167" width="47.9167" height="47.9167" stroke="#242424" stroke-width="2.08333"/>
<path d="M39.2748 20.526C39.2748 19.941 39.0424 19.38 38.6288 18.9664C38.2151 18.5527 37.6541 18.3203 37.0691 18.3203H32.6576V13.9089C32.6576 13.3239 32.4252 12.7628 32.0116 12.3492C31.5979 11.9355 31.0369 11.7031 30.4519 11.7031H12.8061C12.2211 11.7031 11.66 11.9355 11.2464 12.3492C10.8327 12.7628 10.6003 13.3239 10.6003 13.9089V31.5547C10.601 31.7622 10.6602 31.9653 10.771 32.1406C10.8819 32.316 11.04 32.4565 11.2272 32.5461C11.4144 32.6357 11.623 32.6706 11.8291 32.6469C12.0353 32.6232 12.2305 32.5418 12.3925 32.4122L17.2175 28.5218V32.6576C17.2175 33.2425 17.4499 33.8036 17.8636 34.2172C18.2772 34.6309 18.8383 34.8633 19.4233 34.8633H32.3254L37.4827 39.0294C37.6778 39.1872 37.921 39.2738 38.172 39.2747C38.4645 39.2747 38.745 39.1585 38.9518 38.9517C39.1586 38.7449 39.2748 38.4644 39.2748 38.1719V20.526ZM33.409 32.9029C33.2138 32.7451 32.9707 32.6585 32.7197 32.6576H19.4233V28.2461H30.4519C31.0369 28.2461 31.5979 28.0137 32.0116 27.6001C32.4252 27.1864 32.6576 26.6254 32.6576 26.0404V20.526H37.0691V35.8628L33.409 32.9029Z" fill="#8675F2"/>
</svg>
