<svg width="40" height="40" viewBox="0 0 40 40" fill="none" xmlns="http://www.w3.org/2000/svg">
<rect x="1" y="1" width="38" height="38" fill="white"/>
<rect x="1" y="1" width="38" height="38" stroke="#242424" stroke-width="2"/>
<path d="M31.4198 11.1274V15.5389C31.4198 15.7729 31.3269 15.9973 31.1614 16.1627C30.9959 16.3282 30.7715 16.4212 30.5375 16.4212C30.3035 16.4212 30.0791 16.3282 29.9136 16.1627C29.7482 15.9973 29.6552 15.7729 29.6552 15.5389V12.0097H26.1261C25.8921 12.0097 25.6676 11.9167 25.5022 11.7513C25.3367 11.5858 25.2438 11.3614 25.2438 11.1274C25.2438 10.8934 25.3367 10.669 25.5022 10.5035C25.6676 10.3381 25.8921 10.2451 26.1261 10.2451H30.5375C30.7715 10.2451 30.9959 10.3381 31.1614 10.5035C31.3269 10.669 31.4198 10.8934 31.4198 11.1274ZM13.774 27.891H10.2448V24.3618C10.2448 24.1278 10.1519 23.9034 9.98639 23.7379C9.82093 23.5724 9.59651 23.4795 9.36252 23.4795C9.12852 23.4795 8.9041 23.5724 8.73864 23.7379C8.57318 23.9034 8.48022 24.1278 8.48022 24.3618V28.7732C8.48022 29.0072 8.57318 29.2317 8.73864 29.3971C8.9041 29.5626 9.12852 29.6555 9.36252 29.6555H13.774C14.008 29.6555 14.2324 29.5626 14.3978 29.3971C14.5633 29.2317 14.6563 29.0072 14.6563 28.7732C14.6563 28.5392 14.5633 28.3148 14.3978 28.1494C14.2324 27.9839 14.008 27.891 13.774 27.891ZM30.5375 23.4795C30.3035 23.4795 30.0791 23.5724 29.9136 23.7379C29.7482 23.9034 29.6552 24.1278 29.6552 24.3618V27.891H26.1261C25.8921 27.891 25.6676 27.9839 25.5022 28.1494C25.3367 28.3148 25.2438 28.5392 25.2438 28.7732C25.2438 29.0072 25.3367 29.2317 25.5022 29.3971C25.6676 29.5626 25.8921 29.6555 26.1261 29.6555H30.5375C30.7715 29.6555 30.9959 29.5626 31.1614 29.3971C31.3269 29.2317 31.4198 29.0072 31.4198 28.7732V24.3618C31.4198 24.1278 31.3269 23.9034 31.1614 23.7379C30.9959 23.5724 30.7715 23.4795 30.5375 23.4795ZM9.36252 16.4212C9.59651 16.4212 9.82093 16.3282 9.98639 16.1627C10.1519 15.9973 10.2448 15.7729 10.2448 15.5389V12.0097H13.774C14.008 12.0097 14.2324 11.9167 14.3978 11.7513C14.5633 11.5858 14.6563 11.3614 14.6563 11.1274C14.6563 10.8934 14.5633 10.669 14.3978 10.5035C14.2324 10.3381 14.008 10.2451 13.774 10.2451H9.36252C9.12852 10.2451 8.9041 10.3381 8.73864 10.5035C8.57318 10.669 8.48022 10.8934 8.48022 11.1274V15.5389C8.48022 15.7729 8.57318 15.9973 8.73864 16.1627C8.9041 16.3282 9.12852 16.4212 9.36252 16.4212ZM25.4555 15.0216L20.3912 12.1255C20.2578 12.0493 20.1069 12.0092 19.9533 12.0092C19.7997 12.0092 19.6488 12.0493 19.5155 12.1255L14.4445 15.0216C14.3756 15.0598 14.3181 15.1157 14.2781 15.1836C14.238 15.2515 14.2169 15.3288 14.2169 15.4076C14.2169 15.4864 14.238 15.5638 14.2781 15.6317C14.3181 15.6996 14.3756 15.7555 14.4445 15.7936L19.95 18.9346L25.4555 15.7881C25.5231 15.7496 25.5794 15.6938 25.6185 15.6265C25.6576 15.5592 25.6782 15.4827 25.6782 15.4049C25.6782 15.327 25.6576 15.2506 25.6185 15.1833C25.5794 15.1159 25.5231 15.0602 25.4555 15.0216ZM12.8917 17.6928V23.4795C12.8903 23.6357 12.9304 23.7895 13.0079 23.9251C13.0854 24.0608 13.1975 24.1734 13.3328 24.2515L18.406 27.1487C18.4731 27.1875 18.5492 27.2079 18.6267 27.2078C18.7042 27.2078 18.7804 27.1874 18.8474 27.1486C18.9145 27.1098 18.9702 27.054 19.0089 26.9868C19.0475 26.9197 19.0678 26.8435 19.0677 26.766V20.4621L13.5534 17.3101C13.4863 17.2713 13.4102 17.2509 13.3327 17.251C13.2552 17.251 13.1791 17.2714 13.112 17.3102C13.0449 17.349 12.9892 17.4048 12.9505 17.472C12.9119 17.5391 12.8916 17.6153 12.8917 17.6928ZM27.0083 23.4795V17.6928C27.0085 17.6153 26.9882 17.5391 26.9495 17.472C26.9108 17.4048 26.8551 17.349 26.7881 17.3102C26.721 17.2714 26.6449 17.251 26.5674 17.251C26.4899 17.2509 26.4137 17.2713 26.3466 17.3101L20.8323 20.4621V26.7605C20.8322 26.838 20.8525 26.9142 20.8912 26.9813C20.9298 27.0485 20.9855 27.1043 21.0526 27.143C21.1197 27.1818 21.1958 27.2023 21.2733 27.2023C21.3508 27.2023 21.4269 27.182 21.494 27.1432L26.5672 24.2515C26.7025 24.1734 26.8146 24.0608 26.8921 23.9251C26.9696 23.7895 27.0097 23.6357 27.0083 23.4795Z" fill="#8675F2"/>
</svg>
