<svg width="100" height="57" viewBox="0 0 100 57" fill="none" xmlns="http://www.w3.org/2000/svg">
<path d="M61.6585 5.32506C65.8559 7.41094 68.7404 11.7423 68.7404 16.7474C68.7404 21.7525 65.8559 26.0837 61.6585 28.1697M67.3239 42.9967C71.6056 44.9342 75.461 48.0916 78.655 52.1567M22 52.1567C27.5139 45.1388 35 40.8258 43.2457 40.8258C51.4913 40.8258 58.9772 45.1388 64.4912 52.1567M55.993 16.7474C55.993 23.7876 50.2858 29.4946 43.2457 29.4946C36.2054 29.4946 30.4982 23.7876 30.4982 16.7474C30.4982 9.70719 36.2054 4 43.2457 4C50.2858 4 55.993 9.70719 55.993 16.7474Z" stroke="#8675F2" stroke-width="5.22349" stroke-linecap="round" stroke-linejoin="round"/>
</svg>
