<svg width="50" height="50" viewBox="0 0 50 50" fill="none" xmlns="http://www.w3.org/2000/svg">
<rect x="1.04167" y="1.04167" width="47.9167" height="47.9167" fill="white"/>
<rect x="1.04167" y="1.04167" width="47.9167" height="47.9167" stroke="#242424" stroke-width="2.08333"/>
<g clip-path="url(#clip0_210_503)">
<path d="M29.9651 34.2606C30.0736 34.427 30.1352 34.6196 30.1432 34.8181C30.1513 35.0166 30.1057 35.2136 30.0111 35.3883C29.9164 35.563 29.7764 35.7089 29.6057 35.8105C29.4351 35.9122 29.2401 35.9659 29.0414 35.9659H8.70185C8.50319 35.9659 8.30823 35.9122 8.13756 35.8105C7.96689 35.7089 7.82685 35.563 7.73223 35.3883C7.63762 35.2136 7.59194 35.0166 7.60004 34.8181C7.60813 34.6196 7.66968 34.427 7.7782 34.2606C9.33063 31.871 11.6141 30.0474 14.2879 29.062C12.8097 28.0779 11.6875 26.6443 11.0872 24.9732C10.4869 23.302 10.4403 21.482 10.9543 19.7824C11.4683 18.0827 12.5157 16.5935 13.9415 15.5351C15.3673 14.4767 17.0959 13.9053 18.8716 13.9053C20.6474 13.9053 22.3759 14.4767 23.8018 15.5351C25.2276 16.5935 26.275 18.0827 26.789 19.7824C27.303 21.482 27.2564 23.302 26.6561 24.9732C26.0557 26.6443 24.9335 28.0779 23.4554 29.062C26.1292 30.0474 28.4127 31.871 29.9651 34.2606ZM42.0842 34.2399C40.5313 31.8604 38.253 30.0447 35.5869 29.062C37.3319 27.8866 38.5634 26.0903 39.0307 24.0389C39.498 21.9875 39.166 19.8351 38.1023 18.0199C37.0386 16.2046 35.3231 14.8629 33.305 14.2679C31.287 13.6729 29.118 13.8693 27.2396 14.8171C27.1678 14.8542 27.105 14.9066 27.0557 14.9707C27.0064 15.0347 26.9717 15.1088 26.9543 15.1878C26.9368 15.2667 26.9368 15.3485 26.9545 15.4274C26.9721 15.5063 27.0068 15.5803 27.0563 15.6443C28.453 17.3865 29.2552 19.5303 29.3452 21.7615C29.4353 23.9927 28.8085 26.1941 27.5567 28.0432C27.4758 28.1641 27.4459 28.312 27.4735 28.4548C27.5012 28.5975 27.5841 28.7236 27.7042 28.8056C29.3363 29.9447 30.7335 31.3877 31.8193 33.0557C32.2572 33.7264 32.436 34.5334 32.3225 35.3263C32.3097 35.4051 32.3142 35.4858 32.3357 35.5628C32.3571 35.6397 32.3951 35.7111 32.4469 35.7719C32.4987 35.8328 32.5631 35.8816 32.6356 35.9151C32.7081 35.9486 32.7871 35.966 32.867 35.9659H41.1798C41.4227 35.966 41.6588 35.8859 41.8515 35.7381C42.0441 35.5903 42.1826 35.383 42.2455 35.1484C42.2838 34.9942 42.2893 34.8335 42.2615 34.677C42.2337 34.5205 42.1733 34.3716 42.0842 34.2399Z" fill="#8675F2"/>
</g>
<defs>
<clipPath id="clip0_210_503">
<rect width="35.2917" height="35.2917" fill="white" transform="translate(7.29175 7.2915)"/>
</clipPath>
</defs>
</svg>
