<svg width="48" height="48" viewBox="0 0 48 48" fill="none" xmlns="http://www.w3.org/2000/svg">
<path d="M1 47V1H47V47H1Z" fill="white" stroke="#242424" stroke-width="2"/>
<path d="M33.2961 29.6307C31.7353 29.6307 30.2691 28.9748 28.941 27.9011L29.2619 26.3862L29.2725 26.3259C29.5657 24.7169 30.4731 22.0119 33.295 22.0119C35.4093 22.0119 37.1241 23.7204 37.1241 25.8245C37.1241 27.9233 35.4082 29.6318 33.295 29.6318L33.2961 29.6307ZM33.2961 18.1538C29.6996 18.1538 26.9043 20.479 25.7706 24.3085C24.0441 21.7242 22.7266 18.6172 21.9638 16H18.09V26.0329C18.0847 28.0164 16.474 29.6201 14.4819 29.6254C12.4898 29.6201 10.8791 28.0111 10.8738 26.0329V16H7V26.0329C7 30.1427 10.3585 33.5099 14.4819 33.5099C18.6096 33.5099 21.9638 30.1438 21.9638 26.0329V24.3519C22.716 25.9112 23.6404 27.498 24.7634 28.8976L22.3898 40H26.3518L28.073 31.9443C29.5785 32.9027 31.3103 33.5089 33.2971 33.5089C37.547 33.5089 41 30.0486 41 25.8224C41 21.5909 37.547 18.1528 33.2971 18.1528L33.2961 18.1538Z" fill="#242424"/>
</svg>
